<?xml version="1.0" encoding="UTF-8"?>
<svg xmlns="http://www.w3.org/2000/svg" viewBox="0 0 1024 1024" width="1024" height="1024">
  <defs>
    <linearGradient id="bg" x1="0" y1="0" x2="0" y2="1">
      <stop offset="0" stop-color="#3E95FF"/>
      <stop offset="0.55" stop-color="#0F378A"/>
      <stop offset="1" stop-color="#061A50"/>
    </linearGradient>
    <radialGradient id="topHi" cx="0.5" cy="0" r="0.85">
      <stop offset="0" stop-color="#ffffff" stop-opacity="0.30"/>
      <stop offset="1" stop-color="#ffffff" stop-opacity="0"/>
    </radialGradient>
    <radialGradient id="dawnGlow" cx="0.5" cy="0.27" r="0.35">
      <stop offset="0" stop-color="#FFD07A" stop-opacity="0.18"/>
      <stop offset="1" stop-color="#FFD07A" stop-opacity="0"/>
    </radialGradient>
    <linearGradient id="tBtm" x1="0" y1="0" x2="0" y2="1">
      <stop offset="0" stop-color="#C4D1E6"/>
      <stop offset="1" stop-color="#5A6E8E"/>
    </linearGradient>
    <linearGradient id="tMid" x1="0" y1="0" x2="0" y2="1">
      <stop offset="0" stop-color="#E8EEFA"/>
      <stop offset="1" stop-color="#9DB3D6"/>
    </linearGradient>
    <linearGradient id="tUpper" x1="0" y1="0" x2="0" y2="1">
      <stop offset="0" stop-color="#FDF2D9"/>
      <stop offset="1" stop-color="#D8C39A"/>
    </linearGradient>
    <linearGradient id="tTop" x1="0" y1="0" x2="0" y2="1">
      <stop offset="0" stop-color="#FFEEC2"/>
      <stop offset="1" stop-color="#E8B76A"/>
    </linearGradient>
    <filter id="blur3" x="-20%" y="-20%" width="140%" height="140%">
      <feGaussianBlur stdDeviation="6"/>
    </filter>
  </defs>

  <!-- Squircle background + overlays -->
  <rect width="1024" height="1024" rx="230" ry="230" fill="url(#bg)"/>
  <rect width="1024" height="560" rx="230" ry="230" fill="url(#topHi)"/>
  <ellipse cx="512" cy="276" rx="360" ry="160" fill="url(#dawnGlow)"/>

  <!-- Ground shadow -->
  <ellipse cx="512" cy="850" rx="336" ry="20" fill="#000" opacity="0.45" filter="url(#blur3)"/>

  <!-- Bottom tile (no rotation) -->
  <g>
    <rect x="176" y="716" width="672" height="124" rx="44" fill="#000" opacity="0.30" filter="url(#blur3)"/>
    <rect x="176" y="708" width="672" height="124" rx="44" fill="url(#tBtm)"/>
    <rect x="192" y="716" width="640" height="8" rx="4" fill="#ffffff" opacity="0.45"/>
  </g>

  <!-- Middle tile, -2.2° pivot (512, 606) -->
  <g transform="rotate(-2.2 512 606)">
    <rect x="248" y="552" width="528" height="124" rx="40" fill="#000" opacity="0.28" filter="url(#blur3)"/>
    <rect x="248" y="544" width="528" height="124" rx="40" fill="url(#tMid)"/>
    <rect x="264" y="552" width="496" height="8" rx="4" fill="#ffffff" opacity="0.55"/>
  </g>

  <!-- Upper tile, +1.8° pivot (512, 436) -->
  <g transform="rotate(1.8 512 436)">
    <rect x="324" y="384" width="376" height="120" rx="36" fill="#000" opacity="0.26" filter="url(#blur3)"/>
    <rect x="324" y="376" width="376" height="120" rx="36" fill="url(#tUpper)"/>
    <rect x="340" y="384" width="344" height="8" rx="4" fill="#ffffff" opacity="0.60"/>
  </g>

  <!-- Top tile, -1.5° pivot (512, 264) -->
  <g transform="rotate(-1.5 512 264)">
    <rect x="396" y="216" width="232" height="112" rx="32" fill="#000" opacity="0.25" filter="url(#blur3)"/>
    <rect x="396" y="208" width="232" height="112" rx="32" fill="url(#tTop)"/>
    <rect x="408" y="216" width="208" height="6" rx="3" fill="#ffffff" opacity="0.70"/>
  </g>
</svg>
